<svg viewBox="0 0 30 30" fill="none" xmlns="http://www.w3.org/2000/svg">
  <path d="M17.1061 6.80171L12.8916 6.76085C11.7261 6.74909 10.7628 7.69389 10.7495 8.85922L10.7985 21.9502C10.7861 23.1149 11.7288 24.0772 12.8943 24.089L17.1079 24.1305C18.2735 24.1422 19.2368 23.1974 19.25 22.0321L19.2019 8.94045C19.2143 7.77576 18.2716 6.81347 17.1061 6.80171ZM17.9989 21.1006L17.9788 22.0191C17.9758 22.2827 17.8507 22.5268 17.6358 22.6887C17.5309 22.7678 17.3559 22.8612 17.1209 22.8592L12.9073 22.8177C12.683 22.8157 12.4726 22.7248 12.3131 22.5625C12.1536 22.4001 12.0677 22.1876 12.0704 21.9641L12.0906 21.0456C12.0936 20.782 12.218 20.537 12.4338 20.3744C12.5387 20.2954 12.7137 20.202 12.9487 20.204L17.1631 20.2448C17.3875 20.2469 17.5978 20.3377 17.7573 20.5001C17.9151 20.6637 18.001 20.8762 17.9989 21.1006Z" fill="white"/>
</svg>
