<svg width="30" height="31" viewBox="0 0 30 31" fill="none" xmlns="http://www.w3.org/2000/svg">
<g id="L&#195;&#161;piz">
<path id="Vector" d="M14.9924 5.06153C12.5105 5.05902 11.3739 5.92409 10.9868 6.31404C10.8777 6.42341 10.8257 6.56989 10.8257 6.72309L10.8402 19.1482C10.8407 19.6481 10.9863 20.1368 11.2581 20.556L14.5063 25.5603C14.7405 25.9205 15.2684 25.9207 15.502 25.561L18.755 20.5656C19.0289 20.1441 19.1751 19.6515 19.1743 19.1493L19.159 6.72863C19.1587 6.5678 19.0962 6.41682 18.9813 6.30383C18.5818 5.90534 17.4419 5.0627 14.9924 5.06153ZM18.0689 19.5923L16.8092 21.5407C16.76 21.6171 16.6681 21.651 16.5812 21.6251C16.1472 21.5018 15.6722 21.4122 15.0186 21.4118C14.3655 21.4122 13.8903 21.5008 13.4562 21.6224C13.369 21.6465 13.278 21.6131 13.2287 21.5363L11.9721 19.5869L11.9725 18.598C11.9725 18.598 12.9205 17.6879 15.0219 17.6892C17.1209 17.691 18.0695 18.602 18.0695 18.602L18.0689 19.5923Z" fill="white"/>
</g>
</svg>
