<svg width="18" height="134" viewBox="0 0 18 134" fill="none" xmlns="http://www.w3.org/2000/svg">
  <path d="M13.6162 129.396C13.6162 130.113 13.4556 130.776 13.1345 131.387C12.8026 131.986 12.3316 132.468 11.7215 132.832C11.1006 133.185 10.3566 133.362 9.48956 133.362C8.93292 133.362 8.39234 133.26 7.86782 133.057C7.3433 132.853 6.8723 132.569 6.45482 132.206C6.02664 131.831 5.68944 131.387 5.44324 130.873C5.19703 130.359 5.07393 129.792 5.07393 129.171C5.07393 128.571 5.16492 128.052 5.3469 127.613C5.52887 127.164 5.76973 126.816 6.06945 126.57C6.36918 126.323 6.69567 126.2 7.04892 126.2C7.28442 126.2 7.48781 126.264 7.65908 126.393C7.81965 126.521 7.89993 126.709 7.89993 126.955C7.91064 127.223 7.83035 127.415 7.65908 127.533C7.4771 127.64 7.31654 127.694 7.17738 127.694C7.07033 127.694 6.96328 127.677 6.85624 127.645C6.73849 127.613 6.63144 127.549 6.5351 127.453C6.27819 127.538 6.09086 127.688 5.97311 127.902C5.84466 128.116 5.76437 128.341 5.73226 128.577C5.68944 128.801 5.66803 128.989 5.66803 129.139C5.66803 129.867 5.96241 130.482 6.55116 130.985C7.12921 131.478 7.97487 131.724 9.08814 131.724C9.80535 131.724 10.4423 131.611 10.9989 131.387C11.5555 131.151 11.9944 130.825 12.3156 130.407C12.626 129.99 12.7812 129.508 12.7812 128.962C12.7812 128.459 12.6474 127.977 12.3798 127.517C12.1122 127.057 11.7857 126.698 11.4003 126.441L11.7215 126.024C12.1711 126.302 12.535 126.639 12.8133 127.035C13.0916 127.421 13.295 127.822 13.4235 128.239C13.5519 128.646 13.6162 129.032 13.6162 129.396Z" fill="white"/>
  <path d="M13.3593 119.918C13.1773 119.95 13.0167 119.971 12.8776 119.982C12.7384 119.993 12.5939 120.009 12.444 120.03C12.808 120.394 13.097 120.79 13.3111 121.218C13.5145 121.636 13.6162 122.08 13.6162 122.551C13.6162 123.365 13.4342 123.969 13.0702 124.365C12.6956 124.761 12.2406 124.959 11.7054 124.959C11.213 124.959 10.7902 124.81 10.4369 124.51C10.073 124.199 9.77858 123.803 9.55379 123.322C9.31829 122.829 9.14701 122.299 9.03997 121.732C8.92222 121.154 8.8687 120.597 8.8794 120.062H7.88388C7.50922 120.062 7.15597 120.094 6.82413 120.158C6.49228 120.223 6.21932 120.362 6.00523 120.576C5.79113 120.79 5.67874 121.133 5.66803 121.604C5.65733 121.914 5.7162 122.235 5.84466 122.567C5.97311 122.888 6.19256 123.124 6.50299 123.274C6.58862 123.188 6.69032 123.134 6.80807 123.113C6.91511 123.081 7.01681 123.065 7.11315 123.065C7.2416 123.065 7.39147 123.118 7.56274 123.225C7.72331 123.332 7.79824 123.52 7.78754 123.787C7.78754 124.012 7.7126 124.183 7.56274 124.301C7.40217 124.419 7.21484 124.478 7.00075 124.478C6.6368 124.478 6.31031 124.344 6.02128 124.076C5.73226 123.798 5.50211 123.418 5.33084 122.936C5.15957 122.455 5.07393 121.909 5.07393 121.299C5.07393 120.399 5.31478 119.736 5.79649 119.307C6.26749 118.879 7.01681 118.671 8.04444 118.681C8.6439 118.681 9.24871 118.687 9.85887 118.697C10.4583 118.697 11.0578 118.697 11.6572 118.697C11.8285 118.697 11.9998 118.703 12.1711 118.713C12.3423 118.724 12.535 118.74 12.7491 118.762C12.7384 118.569 12.7277 118.382 12.717 118.2C12.7063 118.007 12.6956 117.814 12.6849 117.622H13.3593V119.918ZM9.42533 120.062C9.43604 120.426 9.48421 120.811 9.56985 121.218C9.64478 121.614 9.76253 121.984 9.9231 122.326C10.0837 122.658 10.2978 122.931 10.5654 123.145C10.8223 123.348 11.1381 123.445 11.5127 123.434C11.9088 123.413 12.2085 123.284 12.4119 123.049C12.6046 122.803 12.7009 122.513 12.7009 122.182C12.7009 121.743 12.6206 121.363 12.4601 121.042C12.2888 120.71 12.0533 120.383 11.7536 120.062C11.6358 120.073 11.5074 120.078 11.3682 120.078C11.2291 120.078 11.0845 120.078 10.9347 120.078C10.8812 120.078 10.7099 120.078 10.4209 120.078C10.1318 120.067 9.79999 120.062 9.42533 120.062Z" fill="white"/>
  <path d="M13.6162 113.083C13.6162 113.736 13.4556 114.325 13.1345 114.85C12.8026 115.374 12.3316 115.792 11.7215 116.102C11.1113 116.402 10.3941 116.552 9.56984 116.552C8.69207 116.552 7.91599 116.375 7.2416 116.022C6.56722 115.669 6.03734 115.182 5.65198 114.561C5.26661 113.929 5.07393 113.217 5.07393 112.425C5.07393 112.072 5.1221 111.724 5.21844 111.381C5.30408 111.028 5.40577 110.75 5.52352 110.546H3.32373C3.15246 110.546 2.99189 110.546 2.84203 110.546C2.68146 110.536 2.49413 110.52 2.28004 110.498C2.29074 110.691 2.30145 110.884 2.31215 111.076C2.32286 111.258 2.33356 111.446 2.34427 111.638H1.66988C1.66988 111.167 1.64847 110.803 1.60565 110.546C1.56283 110.29 1.50931 110.097 1.44508 109.968C1.38085 109.829 1.31127 109.722 1.23634 109.647V109.182H11.6572C11.8285 109.182 11.9998 109.187 12.1711 109.198C12.3423 109.208 12.535 109.224 12.7491 109.246C12.7384 109.053 12.7277 108.866 12.717 108.684C12.7063 108.491 12.6956 108.299 12.6849 108.106H13.3593V110.402C13.0702 110.455 12.7919 110.493 12.5243 110.514C12.8561 110.814 13.1238 111.183 13.3271 111.622C13.5198 112.061 13.6162 112.548 13.6162 113.083ZM12.8294 112.505C12.8294 112.152 12.7277 111.799 12.5243 111.446C12.3209 111.082 12.0694 110.782 11.7696 110.546C11.6412 110.557 11.5074 110.563 11.3682 110.563C11.2183 110.563 11.0578 110.563 10.8865 110.563L6.26214 110.546C6.06945 110.803 5.93029 111.087 5.84466 111.397C5.74832 111.697 5.70015 112.008 5.70015 112.329C5.70015 112.864 5.85536 113.33 6.16579 113.726C6.47623 114.122 6.90976 114.422 7.4664 114.625C8.02304 114.828 8.67601 114.919 9.42533 114.898C10.0783 114.876 10.6617 114.775 11.1755 114.593C11.6893 114.4 12.0961 114.132 12.3958 113.79C12.6849 113.437 12.8294 113.009 12.8294 112.505Z" fill="white"/>
  <path d="M13.3593 102.042C13.1773 102.074 13.0167 102.095 12.8776 102.106C12.7384 102.117 12.5939 102.133 12.444 102.154C12.808 102.518 13.097 102.914 13.3111 103.342C13.5145 103.76 13.6162 104.204 13.6162 104.675C13.6162 105.489 13.4342 106.094 13.0702 106.49C12.6956 106.886 12.2406 107.084 11.7054 107.084C11.213 107.084 10.7902 106.934 10.4369 106.634C10.073 106.324 9.77858 105.928 9.55379 105.446C9.31829 104.953 9.14701 104.424 9.03997 103.856C8.92222 103.278 8.8687 102.722 8.8794 102.186H7.88388C7.50922 102.186 7.15597 102.218 6.82412 102.283C6.49228 102.347 6.21932 102.486 6.00523 102.7C5.79113 102.914 5.67874 103.257 5.66803 103.728C5.65733 104.038 5.7162 104.359 5.84466 104.691C5.97311 105.012 6.19256 105.248 6.50299 105.398C6.58862 105.312 6.69032 105.259 6.80807 105.237C6.91511 105.205 7.01681 105.189 7.11315 105.189C7.2416 105.189 7.39147 105.243 7.56274 105.35C7.72331 105.457 7.79824 105.644 7.78754 105.912C7.78754 106.136 7.7126 106.308 7.56274 106.425C7.40217 106.543 7.21484 106.602 7.00075 106.602C6.63679 106.602 6.31031 106.468 6.02128 106.201C5.73226 105.922 5.50211 105.542 5.33084 105.061C5.15956 104.579 5.07393 104.033 5.07393 103.423C5.07393 102.524 5.31478 101.86 5.79649 101.432C6.26749 101.004 7.01681 100.795 8.04444 100.805C8.6439 100.805 9.24871 100.811 9.85887 100.822C10.4583 100.822 11.0578 100.822 11.6572 100.822C11.8285 100.822 11.9998 100.827 12.1711 100.838C12.3423 100.848 12.535 100.864 12.7491 100.886C12.7384 100.693 12.7277 100.506 12.717 100.324C12.7063 100.131 12.6956 99.9384 12.6849 99.7457H13.3593V102.042ZM9.42533 102.186C9.43604 102.55 9.48421 102.936 9.56984 103.342C9.64478 103.739 9.76253 104.108 9.9231 104.45C10.0837 104.782 10.2978 105.055 10.5654 105.269C10.8223 105.473 11.1381 105.569 11.5127 105.558C11.9088 105.537 12.2085 105.408 12.4119 105.173C12.6046 104.927 12.7009 104.638 12.7009 104.306C12.7009 103.867 12.6206 103.487 12.4601 103.166C12.2888 102.834 12.0533 102.508 11.7536 102.186C11.6358 102.197 11.5074 102.202 11.3682 102.202C11.2291 102.202 11.0845 102.202 10.9347 102.202C10.8812 102.202 10.7099 102.202 10.4209 102.202C10.1318 102.192 9.79999 102.186 9.42533 102.186ZM3.51641 104.45L3.14711 104.9L0.979433 103.551C0.743933 103.391 0.610126 103.235 0.578012 103.086C0.535194 102.936 0.535194 102.807 0.578012 102.7C0.62083 102.593 0.652944 102.529 0.674353 102.508C0.706467 102.465 0.776046 102.417 0.883093 102.363C0.990138 102.309 1.12394 102.299 1.28451 102.331C1.43438 102.352 1.611 102.459 1.81439 102.652L3.51641 104.45Z" fill="white"/>
  <path d="M13.4074 95.7812L8.1729 98.0773C7.56274 98.3449 7.08639 98.5216 6.74384 98.6072C6.39059 98.6928 6.12298 98.741 5.941 98.7517L5.98917 99.4422H5.33084L5.33084 96.4877H5.81254C5.81254 96.8088 5.89818 97.0176 6.06945 97.1139C6.23002 97.1996 6.44946 97.2103 6.72778 97.146C6.9954 97.0818 7.28442 96.9855 7.59485 96.857L10.4209 95.6206C10.6028 95.535 10.7955 95.4547 10.9989 95.3798C11.1916 95.2941 11.395 95.2139 11.6091 95.1389V95.1229C11.4485 95.0693 11.2772 95.0105 11.0952 94.9462C10.9133 94.8713 10.7366 94.8071 10.5654 94.7536L7.04892 93.469C6.79201 93.3834 6.56721 93.2924 6.37453 93.196C6.18185 93.0997 6.03734 93.0301 5.941 92.9873L5.98917 94.0149H5.33084V91.478H5.81254C5.81254 91.8312 5.99452 92.1095 6.35848 92.3129C6.71173 92.5163 7.25231 92.7572 7.98022 93.0355L13.4074 95.1389V95.7812Z" fill="white"/>
  <path d="M13.6162 86.9178C13.6162 87.6564 13.4449 88.3255 13.1023 88.9249C12.7491 89.5137 12.2567 89.9793 11.6251 90.3219C10.9828 90.6644 10.2282 90.8357 9.3611 90.8357C8.61179 90.8357 7.91064 90.6698 7.25766 90.3379C6.60468 89.9954 6.08016 89.519 5.68409 88.9089C5.27731 88.2987 5.07393 87.5922 5.07393 86.7894C5.07393 86.1899 5.20238 85.644 5.45929 85.1516C5.7162 84.6592 6.10692 84.2684 6.63144 83.9794C7.15596 83.6797 7.81965 83.5298 8.62249 83.5298L8.71883 89.1818C9.94986 89.1925 10.94 88.9892 11.6893 88.5717C12.428 88.1542 12.7973 87.4745 12.7973 86.5324C12.7973 86.2006 12.7384 85.8634 12.6206 85.5209C12.5029 85.1676 12.3423 84.8411 12.1389 84.5414C11.9356 84.2417 11.7108 84.0008 11.4646 83.8188L11.7857 83.4335C12.2353 83.7225 12.5939 84.0704 12.8615 84.4772C13.1291 84.884 13.3218 85.3014 13.4395 85.7296C13.5573 86.1578 13.6162 86.5539 13.6162 86.9178ZM8.04444 89.1337L8.04444 85.0392C7.65908 85.0392 7.28977 85.098 6.93652 85.2158C6.57257 85.3228 6.27819 85.5048 6.05339 85.7617C5.81789 86.0186 5.70014 86.3558 5.70014 86.7733C5.70014 87.3942 5.88747 87.9133 6.26213 88.3308C6.62609 88.7376 7.22019 89.0052 8.04444 89.1337Z" fill="white"/>
  <path d="M12.8776 82.1009C12.8776 81.769 12.7973 81.5389 12.6367 81.4104C12.4654 81.282 12.2353 81.2071 11.9463 81.1856C11.6465 81.1642 11.304 81.1535 10.9186 81.1535H7.25766C7.08638 81.1535 6.91511 81.1535 6.74384 81.1535C6.57257 81.1428 6.39594 81.1214 6.21396 81.0893C6.22467 81.282 6.23537 81.4747 6.24608 81.6674C6.24608 81.8493 6.25143 82.0367 6.26213 82.2293H5.6038V81.7316C5.6038 81.2713 5.56099 80.9555 5.47535 80.7842C5.37901 80.6022 5.27731 80.4524 5.17027 80.3346V79.869C5.34154 79.8476 5.55563 79.8315 5.81254 79.8208C6.05875 79.8101 6.37453 79.7994 6.7599 79.7887C6.49228 79.6281 6.23002 79.4087 5.97311 79.1304C5.7162 78.8521 5.50211 78.5416 5.33084 78.1991C5.15956 77.8458 5.07393 77.4765 5.07393 77.0912C5.07393 76.7914 5.15421 76.5292 5.31478 76.3044C5.47535 76.0796 5.73226 75.9672 6.08551 75.9672C6.22467 75.9672 6.39059 76.0314 6.58327 76.1599C6.77595 76.2776 6.86694 76.481 6.85624 76.77C6.84553 77.0055 6.75454 77.1929 6.58327 77.332C6.40129 77.4712 6.19255 77.5247 5.95705 77.4926C5.93564 77.8993 6.09086 78.3115 6.4227 78.729C6.75454 79.1464 7.18273 79.4943 7.70725 79.7726L11.6572 79.7566C11.8713 79.7566 12.064 79.7619 12.2353 79.7726C12.3958 79.7726 12.5671 79.7887 12.7491 79.8208C12.7384 79.6495 12.733 79.4836 12.733 79.3231C12.7223 79.1518 12.7116 78.9805 12.7009 78.8092H13.3593V82.1009H12.8776Z" fill="white"/>
  <path d="M13.6162 67.0506C13.6162 67.7892 13.4449 68.4583 13.1023 69.0577C12.7491 69.6465 12.2567 70.1121 11.6251 70.4547C10.9828 70.7972 10.2282 70.9685 9.3611 70.9685C8.61179 70.9685 7.91064 70.8026 7.25766 70.4707C6.60468 70.1282 6.08016 69.6518 5.68409 69.0417C5.27731 68.4315 5.07393 67.725 5.07393 66.9222C5.07393 66.3227 5.20238 65.7768 5.45929 65.2844C5.7162 64.7919 6.10692 64.4012 6.63144 64.1122C7.15596 63.8125 7.81965 63.6626 8.62249 63.6626L8.71883 69.3146C9.94986 69.3253 10.94 69.1219 11.6893 68.7045C12.428 68.287 12.7973 67.6072 12.7973 66.6652C12.7973 66.3334 12.7384 65.9962 12.6206 65.6537C12.5029 65.3004 12.3423 64.9739 12.1389 64.6742C11.9356 64.3745 11.7108 64.1336 11.4646 63.9516L11.7857 63.5663C12.2353 63.8553 12.5939 64.2032 12.8615 64.61C13.1291 65.0167 13.3218 65.4342 13.4395 65.8624C13.5573 66.2906 13.6162 66.6867 13.6162 67.0506ZM8.04444 69.2665V65.172C7.65908 65.172 7.28977 65.2308 6.93652 65.3486C6.57257 65.4556 6.27819 65.6376 6.05339 65.8945C5.81789 66.1514 5.70014 66.4886 5.70014 66.9061C5.70014 67.527 5.88747 68.0461 6.26213 68.4636C6.62609 68.8704 7.22019 69.138 8.04444 69.2665Z" fill="white"/>
  <path d="M13.3593 62.6332H12.8776C12.7919 62.3014 12.6528 62.0391 12.4601 61.8464C12.2567 61.6538 11.9623 61.4076 11.5769 61.1078L9.48956 59.5021C9.28617 59.652 9.04532 59.834 8.767 60.0481C8.47798 60.2622 8.20501 60.4655 7.9481 60.6582C7.68049 60.8402 7.48245 60.9847 7.354 61.0918C7.01145 61.3487 6.72778 61.536 6.50299 61.6538C6.27819 61.7715 6.09621 61.8571 5.95705 61.9107L5.98917 62.6653H5.33084V59.3576H5.81254C5.82325 59.8393 5.93564 60.1123 6.14973 60.1765C6.35312 60.23 6.72778 60.0588 7.27371 59.6627L8.5422 58.7314L6.77595 57.2702C6.58327 57.1097 6.4227 56.9759 6.29425 56.8688C6.15509 56.7618 6.03198 56.6547 5.92494 56.5477L5.98917 57.6556H5.33084V55.0223H5.81254C5.89818 55.3113 6.01058 55.5575 6.14973 55.7609C6.27819 55.9643 6.45482 56.1677 6.67961 56.3711C6.8937 56.5637 7.17737 56.8046 7.53062 57.0936L9.00785 58.33L11.7536 56.1141C11.9141 55.9964 12.0694 55.8786 12.2192 55.7609C12.3691 55.6431 12.5457 55.5254 12.7491 55.4076L12.7009 54.6851H13.3593V57.7841H12.8776C12.8776 57.5271 12.8187 57.3452 12.7009 57.2381C12.5725 57.1204 12.3691 57.1739 12.0908 57.3987L10.0034 59.0847L11.8499 60.4334C12.064 60.594 12.2246 60.7171 12.3316 60.8027C12.4387 60.8884 12.5778 61.0115 12.7491 61.1721L12.7009 59.9357H13.3593V62.6332Z" fill="white"/>
  <path d="M17.4538 48.8502H16.972C16.972 48.5183 16.8864 48.2882 16.7151 48.1597C16.5546 48.0313 16.3244 47.9564 16.0247 47.9349C15.7357 47.9135 15.3985 47.9028 15.0131 47.9028H12.6046C12.9257 48.1811 13.1773 48.5237 13.3593 48.9305C13.5305 49.3372 13.6162 49.7975 13.6162 50.3114C13.6162 50.975 13.4502 51.5798 13.1184 52.1258C12.7759 52.6717 12.2995 53.1052 11.6893 53.4264C11.0685 53.7475 10.3459 53.9081 9.52167 53.9081C8.62249 53.9081 7.84106 53.7261 7.17737 53.3622C6.51369 52.9875 5.99987 52.4897 5.63592 51.8689C5.26126 51.2373 5.07393 50.5415 5.07393 49.7815C5.07393 49.3319 5.1328 48.9251 5.25055 48.5612C5.3683 48.1865 5.42718 47.8654 5.42718 47.5977C5.42718 47.3515 5.34154 47.1482 5.17027 46.9876V46.538L15.7517 46.5219C15.9658 46.5219 16.1531 46.5273 16.3137 46.538C16.485 46.538 16.6616 46.5541 16.8436 46.5862C16.8329 46.4149 16.8222 46.249 16.8115 46.0884C16.8115 45.9171 16.8061 45.7459 16.7954 45.5746H17.4538L17.4538 48.8502ZM12.8294 49.7333C12.8294 49.3801 12.733 49.0429 12.5404 48.7217C12.3477 48.3899 12.1015 48.1169 11.8017 47.9028H7.59485C6.95258 47.9028 6.47087 48.0366 6.14973 48.3042C5.8286 48.5719 5.66803 49.0536 5.66803 49.7494C5.66803 50.5308 5.98917 51.1463 6.63144 51.5959C7.26301 52.0348 8.09797 52.2542 9.13631 52.2542C9.8214 52.2542 10.4423 52.1579 10.9989 51.9652C11.5555 51.7618 11.9998 51.4728 12.3316 51.0981C12.6635 50.7128 12.8294 50.2578 12.8294 49.7333Z" fill="white"/>
  <path d="M13.6162 41.2365C13.6162 41.8145 13.5091 42.3016 13.295 42.6977C13.0809 43.083 12.717 43.3774 12.2032 43.5808C11.6893 43.7735 10.9935 43.8698 10.1158 43.8698H7.25766C7.08638 43.8698 6.91511 43.8698 6.74384 43.8698C6.57256 43.8591 6.39594 43.8377 6.21396 43.8056C6.22467 43.9876 6.23537 44.1749 6.24608 44.3676C6.24608 44.5495 6.25143 44.7315 6.26213 44.9135H5.6038V44.4157C5.6038 43.9554 5.56098 43.6236 5.47535 43.4202C5.37901 43.2061 5.27731 43.0402 5.17027 42.9225L5.17027 42.4568H10.0676C10.9882 42.4568 11.6786 42.3283 12.1389 42.0714C12.5885 41.8038 12.808 41.3542 12.7973 40.7227C12.7866 40.3159 12.6635 39.9305 12.428 39.5666C12.1818 39.1919 11.8927 38.8922 11.5609 38.6674H7.43428C7.17737 38.6674 6.95793 38.662 6.77595 38.6513C6.58327 38.6406 6.39594 38.6192 6.21396 38.5871C6.22467 38.7798 6.23537 38.9725 6.24608 39.1651C6.24608 39.3578 6.25143 39.5505 6.26213 39.7432H5.6038V39.2454C5.6038 38.7851 5.56098 38.4533 5.47535 38.2499C5.37901 38.0358 5.27731 37.8699 5.17027 37.7521V37.2865L11.2398 37.3026C11.411 37.3026 11.6519 37.3079 11.9623 37.3186C12.2727 37.3293 12.535 37.3454 12.7491 37.3668C12.7384 37.1741 12.7277 36.9814 12.717 36.7887C12.7063 36.5961 12.6956 36.4034 12.6849 36.2107H13.3593V38.5068C13.1773 38.5389 13.006 38.5657 12.8454 38.5871C12.6849 38.5978 12.535 38.6085 12.3958 38.6192C12.7277 38.9511 13.0167 39.3525 13.2629 39.8235C13.4984 40.2945 13.6162 40.7655 13.6162 41.2365Z" fill="white"/>
  <path d="M12.8776 35.0437C12.8776 34.7118 12.7973 34.4817 12.6367 34.3532C12.4654 34.2248 12.2353 34.1499 11.9463 34.1284C11.6465 34.107 11.304 34.0963 10.9186 34.0963H7.25766C7.08638 34.0963 6.92581 34.091 6.77595 34.0803C6.61538 34.0696 6.42805 34.0535 6.21396 34.0321C6.22467 34.2248 6.23537 34.4175 6.24608 34.6102C6.25678 34.7921 6.26748 34.9795 6.27819 35.1721H5.6038C5.6038 34.7011 5.58239 34.3372 5.53957 34.0803C5.49676 33.8234 5.44323 33.6307 5.37901 33.5022C5.31478 33.3631 5.2452 33.256 5.17027 33.1811V32.7154H11.6572C11.8713 32.7154 12.064 32.7208 12.2353 32.7315C12.3958 32.7315 12.5671 32.7476 12.7491 32.7797C12.7384 32.6084 12.733 32.4425 12.733 32.2819C12.7223 32.1106 12.7116 31.9394 12.7009 31.7681H13.3593V35.0437H12.8776ZM3.58064 33.4862C3.58064 33.711 3.48965 33.909 3.30767 34.0803C3.1257 34.2515 2.9009 34.3372 2.63328 34.3372C2.36567 34.3372 2.14088 34.2515 1.9589 34.0803C1.76622 33.8983 1.66987 33.6949 1.66987 33.4701C1.66987 33.2239 1.76622 33.0205 1.9589 32.86C2.14088 32.6887 2.36567 32.603 2.63328 32.603C2.9009 32.603 3.1257 32.694 3.30767 32.876C3.48965 33.0473 3.58064 33.2507 3.58064 33.4862Z" fill="white"/>
  <path d="M13.6162 27.236C13.6162 27.7713 13.5412 28.2476 13.3914 28.6651C13.2522 29.0826 13.0916 29.4251 12.9097 29.6927L13.4717 29.6285V30.3029L10.7099 30.3992V29.9015C11.1488 29.8801 11.5448 29.757 11.8981 29.5322C12.2406 29.3074 12.5082 29.0184 12.7009 28.6651C12.8936 28.3119 12.9899 27.9318 12.9899 27.5251C12.9899 27.2467 12.9471 26.9738 12.8615 26.7062C12.7652 26.4386 12.626 26.2138 12.444 26.0318C12.2513 25.8498 12.0105 25.7588 11.7215 25.7588C11.4217 25.7588 11.1755 25.8498 10.9828 26.0318C10.7795 26.2031 10.6028 26.4332 10.453 26.7222C10.3031 27.0112 10.1639 27.3217 10.0355 27.6535C9.86422 28.0817 9.68224 28.5099 9.48956 28.9381C9.28617 29.3555 9.02391 29.7034 8.70277 29.9818C8.37093 30.2601 7.9374 30.3992 7.40217 30.3992C7.17737 30.3992 6.93117 30.3564 6.66355 30.2708C6.39594 30.1852 6.14438 30.0406 5.90888 29.8373C5.66268 29.6339 5.46464 29.3555 5.31478 29.0023C5.15421 28.649 5.07392 28.1995 5.07392 27.6535C5.07392 27.3645 5.1221 27.0434 5.21844 26.6901C5.31478 26.3369 5.49676 25.9943 5.76437 25.6625L5.15421 25.6946V25.0202H7.96416V25.534C7.5895 25.5554 7.23089 25.6411 6.88835 25.7909C6.5351 25.9408 6.24607 26.1602 6.02128 26.4493C5.78578 26.7383 5.66803 27.1129 5.66803 27.5732C5.66803 28.0656 5.79113 28.451 6.03734 28.7293C6.28354 29.0076 6.56721 29.1468 6.88835 29.1468C7.22019 29.1468 7.49851 29.0451 7.7233 28.8417C7.9374 28.6276 8.12473 28.3547 8.28529 28.0228C8.44586 27.691 8.60108 27.3377 8.75094 26.9631C8.92222 26.5563 9.10954 26.1602 9.31293 25.7749C9.51632 25.3895 9.77323 25.0737 10.0837 24.8275C10.3834 24.5813 10.7741 24.4582 11.2558 24.4582C11.791 24.4582 12.2353 24.5974 12.5885 24.8757C12.9418 25.1433 13.1987 25.4912 13.3593 25.9194C13.5305 26.3369 13.6162 26.7757 13.6162 27.236Z" fill="white"/>
  <path d="M12.8776 23.0951C12.8776 22.7633 12.7973 22.5331 12.6367 22.4047C12.4654 22.2762 12.2353 22.2013 11.9463 22.1799C11.6465 22.1585 11.304 22.1478 10.9186 22.1478L7.25766 22.1478C7.08638 22.1478 6.92581 22.1424 6.77595 22.1317C6.61538 22.121 6.42805 22.105 6.21396 22.0836C6.22467 22.2762 6.23537 22.4689 6.24607 22.6616C6.25678 22.8436 6.26748 23.0309 6.27819 23.2236H5.6038C5.6038 22.7526 5.58239 22.3886 5.53957 22.1317C5.49676 21.8748 5.44323 21.6821 5.37901 21.5537C5.31478 21.4145 5.2452 21.3075 5.17027 21.2325L5.17027 20.7669H11.6572C11.8713 20.7669 12.064 20.7722 12.2353 20.783C12.3958 20.783 12.5671 20.799 12.7491 20.8311C12.7384 20.6598 12.733 20.4939 12.733 20.3334C12.7223 20.1621 12.7116 19.9908 12.7009 19.8195H13.3593V23.0951H12.8776ZM3.58064 21.5376C3.58064 21.7624 3.48965 21.9605 3.30767 22.1317C3.12569 22.303 2.9009 22.3886 2.63328 22.3886C2.36567 22.3886 2.14087 22.303 1.9589 22.1317C1.76621 21.9497 1.66987 21.7464 1.66987 21.5216C1.66987 21.2754 1.76621 21.072 1.9589 20.9114C2.14087 20.7401 2.36567 20.6545 2.63328 20.6545C2.9009 20.6545 3.12569 20.7455 3.30767 20.9275C3.48965 21.0987 3.58064 21.3021 3.58064 21.5376Z" fill="white"/>
  <path d="M13.6162 15.3096C13.6162 15.5558 13.5787 15.8073 13.5038 16.0642C13.4395 16.3212 13.3057 16.562 13.1023 16.7868C12.899 17.0009 12.6046 17.1722 12.2192 17.3006C11.8232 17.4291 11.304 17.4933 10.6617 17.4933L6.00522 17.4612L6.02128 18.6976L5.33083 18.6976C5.32013 18.4193 5.21844 18.1356 5.02575 17.8466C4.82237 17.5575 4.5494 17.3006 4.20685 17.0758C3.86431 16.8403 3.48965 16.6798 3.08288 16.5941V16.0482H5.33083V13.3506H5.95705L5.98916 16.0482L10.453 16.0803C11.1809 16.0803 11.7375 15.9893 12.1229 15.8073C12.5082 15.6147 12.7009 15.2989 12.7009 14.86C12.7009 14.5603 12.6153 14.2819 12.444 14.025C12.2727 13.7574 12.0372 13.5219 11.7375 13.3185L12.0908 12.885C12.5618 13.1954 12.9043 13.5059 13.1184 13.8163C13.3325 14.116 13.4663 14.3943 13.5198 14.6512C13.5841 14.9082 13.6162 15.1276 13.6162 15.3096Z" fill="white"/>
  <path d="M13.6162 8.13668C13.6162 8.886 13.4449 9.56574 13.1023 10.1759C12.7491 10.7861 12.2674 11.2731 11.6572 11.6371C11.0364 11.9903 10.3299 12.167 9.53773 12.167C8.69207 12.167 7.93204 11.9903 7.25766 11.6371C6.58327 11.2838 6.05339 10.8021 5.66803 10.192C5.27196 9.5818 5.07392 8.89671 5.07392 8.13668C5.07392 7.38736 5.2559 6.70762 5.61986 6.09746C5.97311 5.4873 6.45481 5.00025 7.06497 4.63629C7.67513 4.27234 8.37093 4.09036 9.15236 4.09036C9.97661 4.09036 10.7313 4.27234 11.4164 4.63629C12.0908 4.98954 12.626 5.47125 13.0221 6.08141C13.4181 6.69157 13.6162 7.37666 13.6162 8.13668ZM12.9739 8.00823C12.9739 7.44089 12.8133 6.99129 12.4922 6.65945C12.171 6.32761 11.7536 6.09211 11.2398 5.95295C10.7259 5.80309 10.1854 5.72816 9.61801 5.72816C9.13631 5.72816 8.6653 5.77633 8.20501 5.87267C7.73401 5.9583 7.31118 6.09746 6.93652 6.29015C6.55115 6.48283 6.24607 6.73439 6.02128 7.04482C5.79648 7.34455 5.68408 7.7085 5.68408 8.13668C5.68408 8.69332 5.84465 9.14826 6.16579 9.50151C6.48693 9.85477 6.9044 10.117 7.41822 10.2883C7.93204 10.4489 8.48333 10.5292 9.07208 10.5292C9.73576 10.5292 10.3673 10.4382 10.9668 10.2562C11.5555 10.0742 12.0372 9.79589 12.4119 9.42123C12.7866 9.04657 12.9739 8.57557 12.9739 8.00823Z" fill="white"/>
  <path d="M13.6162 1.47372C13.6162 1.71993 13.5198 1.93937 13.3271 2.13205C13.1238 2.31403 12.8775 2.40502 12.5885 2.40502C12.2995 2.40502 12.0533 2.30868 11.8499 2.11599C11.6465 1.92331 11.5448 1.70387 11.5448 1.45766C11.5448 1.19005 11.6465 0.970607 11.8499 0.799334C12.0533 0.617356 12.2995 0.526367 12.5885 0.526367C12.8775 0.526367 13.1238 0.622708 13.3271 0.81539C13.5198 1.00807 13.6162 1.22752 13.6162 1.47372Z" fill="white"/>
</svg>
