<svg width="18" height="52" viewBox="0 0 18 52" fill="none" xmlns="http://www.w3.org/2000/svg">
<path d="M13.6631 47.1472C13.6631 47.9752 13.4711 48.7252 13.0871 49.3972C12.6911 50.0572 12.1391 50.5792 11.4311 50.9632C10.7111 51.3472 9.86507 51.5392 8.89307 51.5392C8.05307 51.5392 7.26706 51.3532 6.53506 50.9812C5.80306 50.5972 5.21507 50.0632 4.77107 49.3792C4.31506 48.6952 4.08706 47.9032 4.08706 47.0032C4.08706 46.3312 4.23106 45.7192 4.51906 45.1672C4.80706 44.6152 5.24506 44.1772 5.83306 43.8532C6.42106 43.5172 7.16507 43.3492 8.06506 43.3492L8.17307 49.6852C9.55307 49.6972 10.6631 49.4692 11.5031 49.0012C12.3311 48.5332 12.7451 47.7712 12.7451 46.7152C12.7451 46.3432 12.6791 45.9652 12.5471 45.5812C12.4151 45.1852 12.2351 44.8192 12.0071 44.4832C11.7791 44.1472 11.5271 43.8772 11.2511 43.6732L11.6111 43.2412C12.1151 43.5652 12.5171 43.9552 12.8171 44.4112C13.1171 44.8672 13.3331 45.3352 13.4651 45.8152C13.5971 46.2952 13.6631 46.7392 13.6631 47.1472ZM7.41706 49.6312V45.0412C6.98506 45.0412 6.57106 45.1072 6.17507 45.2392C5.76706 45.3592 5.43706 45.5632 5.18506 45.8512C4.92106 46.1392 4.78906 46.5172 4.78906 46.9852C4.78906 47.6812 4.99906 48.2632 5.41906 48.7312C5.82706 49.1872 6.49306 49.4872 7.41706 49.6312Z" fill="white"/>
<path d="M13.3751 42.1952H12.8351C12.7391 41.8232 12.5831 41.5292 12.3671 41.3132C12.1391 41.0972 11.8091 40.8212 11.3771 40.4852L9.03706 38.6852C8.80906 38.8532 8.53906 39.0572 8.22706 39.2972C7.90306 39.5372 7.59706 39.7652 7.30906 39.9812C7.00906 40.1852 6.78706 40.3472 6.64306 40.4672C6.25906 40.7552 5.94106 40.9652 5.68906 41.0972C5.43706 41.2292 5.23306 41.3252 5.07706 41.3852L5.11306 42.2312H4.37506V38.5232H4.91506C4.92706 39.0632 5.05306 39.3692 5.29306 39.4412C5.52106 39.5012 5.94106 39.3092 6.55306 38.8652L7.97506 37.8212L5.99506 36.1832C5.77906 36.0032 5.59906 35.8532 5.45506 35.7332C5.29906 35.6132 5.16106 35.4932 5.04106 35.3732L5.11306 36.6152H4.37506L4.37506 33.6632H4.91506C5.01106 33.9872 5.13706 34.2632 5.29306 34.4912C5.43706 34.7192 5.63506 34.9472 5.88706 35.1752C6.12706 35.3912 6.44506 35.6612 6.84106 35.9852L8.49706 37.3712L11.5751 34.8872C11.7551 34.7552 11.9291 34.6232 12.0971 34.4912C12.2651 34.3592 12.4631 34.2272 12.6911 34.0952L12.6371 33.2852H13.3751V36.7592H12.8351C12.8351 36.4712 12.7691 36.2672 12.6371 36.1472C12.4931 36.0152 12.2651 36.0752 11.9531 36.3272L9.61306 38.2172L11.6831 39.7292C11.9231 39.9092 12.1031 40.0472 12.2231 40.1432C12.3431 40.2392 12.4991 40.3772 12.6911 40.5572L12.6371 39.1712H13.3751V42.1952Z" fill="white"/>
<path d="M4.17706 27.1243C4.17706 26.9203 4.18906 26.6743 4.21306 26.3863C4.22506 26.0863 4.24306 25.7923 4.26706 25.5043C4.29106 25.2043 4.32106 24.9643 4.35706 24.7843C5.11306 24.8443 5.98306 24.9223 6.96706 25.0183C7.93906 25.1023 8.95306 25.1983 10.0091 25.3063C11.0651 25.4023 12.0971 25.4983 13.1051 25.5943C14.1011 25.6783 14.9951 25.7503 15.7871 25.8103C16.0271 25.8223 16.2851 25.8403 16.5611 25.8643C16.8371 25.8883 17.0771 25.9303 17.2811 25.9903C17.2691 25.7983 17.2571 25.6123 17.2451 25.4323C17.2451 25.2403 17.2391 25.0483 17.2271 24.8563H17.9651V28.2583H17.4251C17.4251 27.9223 17.3111 27.6883 17.0831 27.5563C16.8551 27.4123 16.5491 27.3223 16.1651 27.2863C15.7931 27.2383 15.3731 27.1963 14.9051 27.1603C14.0051 27.0883 13.1051 27.0043 12.2051 26.9083C11.3051 26.8123 10.4471 26.7103 9.63106 26.6023V26.6563C10.7351 26.9683 11.5691 27.3103 12.1331 27.6823C12.6971 28.0543 13.0751 28.4323 13.2671 28.8163C13.4591 29.2003 13.5611 29.5723 13.5731 29.9323C13.5851 30.4843 13.4471 30.9403 13.1591 31.3003C12.8591 31.6603 12.4571 31.9303 11.9531 32.1103C11.4371 32.2903 10.8671 32.3863 10.2431 32.3983C9.06706 32.3983 8.02906 32.2003 7.12906 31.8043C6.21706 31.4083 5.50306 30.8203 4.98706 30.0403C4.45906 29.2483 4.18906 28.2763 4.17706 27.1243ZM4.78906 27.4123C4.80106 28.0483 4.96906 28.5883 5.29306 29.0323C5.60506 29.4643 6.01906 29.8183 6.53506 30.0943C7.05106 30.3583 7.60306 30.5503 8.19106 30.6703C8.77906 30.7903 9.34906 30.8503 9.90106 30.8503C10.7171 30.8383 11.3951 30.7423 11.9351 30.5623C12.4631 30.3823 12.7271 30.0463 12.7271 29.5543C12.7271 29.2063 12.5651 28.8763 12.2411 28.5643C11.9051 28.2403 11.4611 27.9403 10.9091 27.6643C10.3571 27.3763 9.74506 27.1243 9.07306 26.9083C8.38906 26.6923 7.69306 26.5183 6.98506 26.3863C6.26506 26.2543 5.58706 26.1703 4.95106 26.1343C4.84306 26.4943 4.78906 26.9203 4.78906 27.4123Z" fill="white"/>
<path d="M13.5731 20.0219C13.5731 20.5019 13.4651 20.8859 13.2491 21.1739C13.0331 21.4619 12.7451 21.6719 12.3851 21.8039C12.0251 21.9239 11.6411 21.9839 11.2331 21.9839C10.5611 21.9839 9.88306 21.9359 9.19906 21.8399C8.51506 21.7439 7.88506 21.6479 7.30906 21.5519C6.72106 21.4559 6.25906 21.4079 5.92306 21.4079C5.69506 21.4079 5.49706 21.4379 5.32906 21.4979C5.16106 21.5459 5.07706 21.6779 5.07706 21.8939C5.07706 22.0859 5.20906 22.3019 5.47306 22.5419C5.73706 22.7699 6.18706 22.9739 6.82306 23.1539L6.71506 23.6579C6.49906 23.6219 6.25306 23.5499 5.97706 23.4419C5.68906 23.3339 5.40706 23.1899 5.13106 23.0099C4.85506 22.8179 4.62706 22.5899 4.44706 22.3259C4.26706 22.0499 4.17706 21.7319 4.17706 21.3719C4.17706 20.8919 4.32706 20.5319 4.62706 20.2919C4.92706 20.0399 5.35906 19.9139 5.92306 19.9139C6.25906 19.9139 6.67306 19.9439 7.16506 20.0039C7.65706 20.0639 8.17306 20.1359 8.71306 20.2199C9.24106 20.2919 9.75706 20.3579 10.2611 20.4179C10.7651 20.4779 11.2091 20.5079 11.5931 20.5079C11.7251 20.5079 11.8811 20.4899 12.0611 20.4539C12.2411 20.4059 12.3971 20.3219 12.5291 20.2019C12.6611 20.0699 12.7271 19.8899 12.7271 19.6619C12.7271 19.3259 12.5711 18.9959 12.2591 18.6719C11.9471 18.3479 11.5271 18.0419 10.9991 17.7539C10.4711 17.4659 9.88906 17.2079 9.25306 16.9799C8.60506 16.7519 7.94506 16.5779 7.27306 16.4579C6.58906 16.3259 5.94106 16.2599 5.32906 16.2599C5.14906 16.2599 4.98706 16.2659 4.84306 16.2779C4.68706 16.2779 4.53106 16.2839 4.37506 16.2959V14.7839C4.45906 14.7719 4.53706 14.7659 4.60906 14.7659C4.66906 14.7659 4.74706 14.7659 4.84306 14.7659C5.04706 14.7659 5.29306 14.7779 5.58106 14.8019C5.85706 14.8259 6.22906 14.8619 6.69706 14.9099C7.15306 14.9579 7.75906 15.0299 8.51506 15.1259C9.21106 15.2099 9.75706 15.2759 10.1531 15.3239C10.5491 15.3599 10.8491 15.3899 11.0531 15.4139C11.2451 15.4379 11.3951 15.4559 11.5031 15.4679C11.6111 15.4679 11.7311 15.4679 11.8631 15.4679C12.0791 15.4679 12.2651 15.4379 12.4211 15.3779C12.5771 15.3059 12.6551 15.1739 12.6551 14.9819C12.6551 14.7779 12.5291 14.5559 12.2771 14.3159C12.0131 14.0639 11.5631 13.8479 10.9271 13.6679L11.0351 13.1639C11.2511 13.1999 11.5031 13.2779 11.7911 13.3979C12.0671 13.5059 12.3431 13.6559 12.6191 13.8479C12.8951 14.0399 13.1231 14.2739 13.3031 14.5499C13.4831 14.8259 13.5731 15.1439 13.5731 15.5039C13.5731 15.9839 13.4231 16.3379 13.1231 16.5659C12.8231 16.7819 12.4331 16.8899 11.9531 16.8899C11.6051 16.8899 11.2271 16.8599 10.8191 16.7999C10.4111 16.7279 9.98506 16.6499 9.54106 16.5659V16.6199C10.6331 17.0279 11.4731 17.4179 12.0611 17.7899C12.6371 18.1619 13.0331 18.5279 13.2491 18.8879C13.4651 19.2479 13.5731 19.6259 13.5731 20.0219Z" fill="white"/>
<path d="M0.289062 9.67599C0.289062 9.39999 0.385063 9.17199 0.577063 8.99199C0.757063 8.81199 1.00306 8.72199 1.31506 8.72199C1.61506 8.72199 1.86106 8.81799 2.05306 9.00999C2.23306 9.20199 2.32306 9.42999 2.32306 9.69399C2.32306 9.95799 2.23306 10.186 2.05306 10.378C1.86106 10.558 1.61506 10.648 1.31506 10.648C1.00306 10.648 0.757063 10.552 0.577063 10.36C0.385063 10.168 0.289063 9.93999 0.289062 9.67599ZM4.17706 10.702C4.17706 10.198 4.35106 9.81999 4.69906 9.56799C5.03506 9.31599 5.48506 9.18999 6.04906 9.18999C6.52906 9.18999 7.09906 9.24999 7.75906 9.36999C8.41906 9.47799 9.10906 9.59199 9.82906 9.71199C10.5491 9.81999 11.2451 9.87399 11.9171 9.87399C12.4211 9.87399 12.6731 9.68799 12.6731 9.31599C12.6731 9.11199 12.5411 8.88999 12.2771 8.64999C12.0131 8.39799 11.5631 8.18199 10.9271 8.00199L11.0351 7.49799C11.3711 7.56999 11.7371 7.69599 12.1331 7.87599C12.5291 8.05599 12.8711 8.29599 13.1591 8.59599C13.4351 8.89599 13.5731 9.27399 13.5731 9.72999C13.5731 10.81 13.0091 11.35 11.8811 11.35C11.1851 11.35 10.5131 11.29 9.86506 11.17C9.20506 11.05 8.55106 10.936 7.90306 10.828C7.24306 10.708 6.57106 10.648 5.88706 10.648C5.73106 10.648 5.55706 10.684 5.36506 10.756C5.17306 10.816 5.07706 10.948 5.07706 11.152C5.07706 11.344 5.20906 11.566 5.47306 11.818C5.73706 12.07 6.18706 12.286 6.82306 12.466L6.71506 12.97C6.49906 12.934 6.25306 12.862 5.97706 12.754C5.68906 12.646 5.40706 12.502 5.13106 12.322C4.85506 12.13 4.62706 11.902 4.44706 11.638C4.26706 11.374 4.17706 11.062 4.17706 10.702Z" fill="white"/>
<path d="M13.5731 3.84005C13.5731 4.32005 13.5011 4.78205 13.3571 5.22605C13.2011 5.67005 12.9791 6.03006 12.6911 6.30606C12.4031 6.58206 12.0551 6.72006 11.6471 6.72006C11.3831 6.72006 11.1731 6.64806 11.0171 6.50406C10.8491 6.34806 10.7651 6.16205 10.7651 5.94605C10.7651 5.70605 10.8431 5.52606 10.9991 5.40605C11.1551 5.27405 11.3291 5.20806 11.5211 5.20806C11.6051 5.20806 11.6951 5.22005 11.7911 5.24405C11.8871 5.26805 11.9831 5.31005 12.0791 5.37005C12.3431 5.27405 12.5471 5.08206 12.6911 4.79405C12.8351 4.50605 12.9071 4.20005 12.9071 3.87605C12.9071 3.22805 12.7571 2.74205 12.4571 2.41805C12.1571 2.09405 11.7371 1.93205 11.1971 1.93205C10.8731 1.93206 10.5851 2.04605 10.3331 2.27405C10.0811 2.50205 9.84706 2.79005 9.63106 3.13805C9.40306 3.48606 9.18106 3.84605 8.96506 4.21805C8.74906 4.56605 8.52706 4.90206 8.29906 5.22606C8.07106 5.53806 7.81906 5.79606 7.54306 6.00006C7.26706 6.19206 6.95506 6.28806 6.60706 6.28806C6.16306 6.28806 5.76106 6.15606 5.40106 5.89206C5.02906 5.62806 4.73506 5.26206 4.51906 4.79405C4.29106 4.32605 4.17706 3.78606 4.17706 3.17406C4.17706 2.71806 4.24906 2.29206 4.39306 1.89606C4.53706 1.48806 4.74106 1.15806 5.00506 0.906055C5.26906 0.642055 5.58106 0.510055 5.94106 0.510055C6.19306 0.510055 6.39706 0.582055 6.55306 0.726055C6.69706 0.870055 6.76906 1.05006 6.76906 1.26606C6.76906 1.48205 6.69706 1.65605 6.55306 1.78805C6.40906 1.92006 6.24106 1.98606 6.04906 1.98606C5.95306 1.98606 5.86306 1.97406 5.77906 1.95006C5.68306 1.92605 5.58706 1.88405 5.49106 1.82405C5.28706 1.88405 5.11906 2.03405 4.98706 2.27406C4.84306 2.50206 4.77106 2.82006 4.77106 3.22806C4.77106 3.49206 4.83106 3.75006 4.95106 4.00206C5.07106 4.25406 5.23906 4.46406 5.45506 4.63206C5.65906 4.80006 5.90506 4.88406 6.19306 4.88406C6.52906 4.88406 6.82906 4.74006 7.09306 4.45206C7.35706 4.15206 7.61506 3.79806 7.86706 3.39006C8.11906 2.95806 8.38906 2.51405 8.67706 2.05806C8.95306 1.60205 9.27106 1.22405 9.63106 0.924055C9.99106 0.612055 10.4291 0.456055 10.9451 0.456055C11.4491 0.456055 11.8991 0.600055 12.2951 0.888055C12.6911 1.16405 13.0031 1.56005 13.2311 2.07605C13.4591 2.58005 13.5731 3.16805 13.5731 3.84005Z" fill="white"/>
</svg>
